<svg width="32" height="32" viewBox="0 0 32 32" fill="none" xmlns="http://www.w3.org/2000/svg">
<rect width="32" height="32" rx="3" fill="white"/>
<path d="M10.5497 8.45455H8.57528C8.58949 8.28646 8.58002 8.13494 8.54688 8C8.51373 7.86506 8.45691 7.74905 8.37642 7.65199C8.29593 7.55256 8.19058 7.4768 8.06037 7.42472C7.93016 7.37263 7.77509 7.34659 7.59517 7.34659C7.24953 7.34659 6.94058 7.433 6.66832 7.60582C6.39607 7.77628 6.16998 8.02131 5.99006 8.34091C5.81013 8.65814 5.68229 9.03693 5.60653 9.47727C5.54025 9.90341 5.53788 10.2573 5.59943 10.5391C5.66335 10.8208 5.78764 11.0315 5.9723 11.1712C6.15933 11.3108 6.40199 11.3807 6.70028 11.3807C6.89915 11.3807 7.08144 11.357 7.24716 11.3097C7.41525 11.2623 7.56439 11.1948 7.6946 11.1072C7.82718 11.0173 7.93963 10.9107 8.03196 10.7876C8.12666 10.6622 8.19886 10.5237 8.24858 10.3722H10.2372C10.1615 10.6799 10.0265 10.9948 9.83239 11.3168C9.63826 11.6364 9.38731 11.9311 9.07955 12.201C8.77178 12.4685 8.40956 12.6851 7.9929 12.8509C7.57623 13.0166 7.10748 13.0994 6.58665 13.0994C5.90483 13.0994 5.31652 12.9503 4.82173 12.652C4.32931 12.3537 3.97183 11.9181 3.74929 11.3452C3.52912 10.7723 3.48532 10.0739 3.6179 9.25C3.75047 8.45455 4.01207 7.78812 4.4027 7.25071C4.79332 6.7133 5.26799 6.30848 5.8267 6.03622C6.38542 5.76397 6.97964 5.62784 7.60938 5.62784C8.08523 5.62784 8.51136 5.69058 8.88778 5.81605C9.26657 5.94152 9.58499 6.125 9.84304 6.36648C10.1035 6.60559 10.2952 6.90033 10.4183 7.25071C10.5414 7.60109 10.5852 8.00237 10.5497 8.45455ZM17.5276 9.49148C17.395 10.2822 17.1322 10.9451 16.7392 11.4801C16.3462 12.0152 15.8692 12.4188 15.3081 12.6911C14.7471 12.9633 14.1469 13.0994 13.5077 13.0994C12.8259 13.0994 12.234 12.9515 11.7321 12.6555C11.2302 12.3596 10.8645 11.9264 10.6348 11.3558C10.4052 10.7853 10.359 10.0881 10.4963 9.2642C10.6242 8.47348 10.8846 7.80824 11.2776 7.26847C11.6706 6.72869 12.15 6.32031 12.7158 6.04332C13.2816 5.76634 13.8865 5.62784 14.5304 5.62784C15.2075 5.62784 15.7958 5.77699 16.2953 6.07528C16.7972 6.37358 17.1618 6.81037 17.3891 7.38565C17.6187 7.96094 17.6649 8.66288 17.5276 9.49148ZM15.539 9.2642C15.6052 8.84754 15.61 8.49716 15.5532 8.21307C15.4963 7.92661 15.3768 7.71117 15.1945 7.56676C15.0122 7.41998 14.7672 7.34659 14.4594 7.34659C14.109 7.34659 13.7989 7.43182 13.529 7.60227C13.2591 7.77273 13.0354 8.01776 12.8578 8.33736C12.6803 8.65696 12.556 9.04167 12.485 9.49148C12.4092 9.91288 12.4021 10.2633 12.4637 10.5426C12.5276 10.822 12.6531 11.0315 12.8401 11.1712C13.0295 11.3108 13.2757 11.3807 13.5787 11.3807C13.9244 11.3807 14.2298 11.2978 14.4949 11.1321C14.7624 10.9664 14.9838 10.7261 15.159 10.4112C15.3365 10.0964 15.4632 9.71402 15.539 9.2642ZM17.0587 13L18.2661 5.72727H21.4053C21.9451 5.72727 22.4008 5.82552 22.7725 6.02202C23.1442 6.21851 23.4117 6.50142 23.5751 6.87074C23.7384 7.24006 23.7775 7.68276 23.6923 8.19886C23.607 8.7197 23.4188 9.15885 23.1276 9.51634C22.8388 9.87145 22.4707 10.1413 22.0232 10.326C21.5781 10.5083 21.0786 10.5994 20.5246 10.5994H18.6496L18.9053 9.06534H20.3826C20.6146 9.06534 20.8182 9.03693 20.9934 8.98011C21.1686 8.92093 21.3106 8.8286 21.4195 8.70312C21.5284 8.57528 21.5995 8.4072 21.6326 8.19886C21.6657 7.99053 21.6492 7.82126 21.5829 7.69105C21.5166 7.55848 21.4065 7.46141 21.2526 7.39986C21.0987 7.33594 20.9082 7.30398 20.6809 7.30398H19.9849L19.0332 13H17.0587ZM21.8741 9.66193L23.1383 13H20.9934L19.7718 9.66193H21.8741ZM7.75852 18C7.77983 17.7656 7.72301 17.5821 7.58807 17.4496C7.45313 17.3146 7.22585 17.2472 6.90625 17.2472C6.70265 17.2472 6.5322 17.2708 6.39489 17.3182C6.25994 17.3655 6.15459 17.4306 6.07884 17.5135C6.00545 17.5964 5.95928 17.6922 5.94034 17.8011C5.91903 17.8864 5.92022 17.9645 5.94389 18.0355C5.96993 18.1042 6.01847 18.1669 6.08949 18.2237C6.16288 18.2805 6.25876 18.3314 6.37713 18.3764C6.49787 18.4214 6.6411 18.4616 6.80682 18.4972L7.375 18.625C7.76326 18.7102 8.08878 18.8227 8.35156 18.9624C8.61671 19.0997 8.82505 19.263 8.97656 19.4524C9.12808 19.6418 9.22751 19.8537 9.27486 20.0881C9.32457 20.3224 9.32576 20.5781 9.27841 20.8551C9.19792 21.3333 9.01207 21.7382 8.72088 22.0696C8.42969 22.401 8.04972 22.6532 7.58097 22.826C7.11222 22.9988 6.57008 23.0852 5.95455 23.0852C5.32481 23.0852 4.78977 22.9917 4.34943 22.8047C3.91146 22.6153 3.59422 22.3265 3.39773 21.9382C3.2036 21.5476 3.15625 21.0492 3.25568 20.4432H5.13068C5.10227 20.6657 5.12595 20.8527 5.2017 21.0043C5.27746 21.1558 5.39938 21.2706 5.56747 21.3487C5.73556 21.4268 5.94508 21.4659 6.19602 21.4659C6.40909 21.4659 6.59138 21.4399 6.7429 21.3878C6.89441 21.3357 7.01397 21.2635 7.10156 21.1712C7.18916 21.0788 7.24242 20.9735 7.26136 20.8551C7.2803 20.7462 7.26136 20.6491 7.20455 20.5639C7.14773 20.4787 7.04474 20.4018 6.8956 20.3331C6.74645 20.2644 6.54167 20.2017 6.28125 20.1449L5.58523 19.9886C4.96733 19.8466 4.50095 19.6122 4.18608 19.2855C3.87121 18.9588 3.75994 18.5114 3.85227 17.9432C3.92803 17.4792 4.11861 17.0743 4.42401 16.7287C4.73177 16.3807 5.1224 16.1108 5.59588 15.919C6.07173 15.7249 6.59848 15.6278 7.17614 15.6278C7.76326 15.6278 8.2545 15.7261 8.64986 15.9226C9.04759 16.1191 9.33286 16.3949 9.50568 16.75C9.68087 17.1051 9.72822 17.5218 9.64773 18H7.75852ZM10.721 23L9.78345 15.7273H11.9852L12.2408 20.2017H12.2977L14.2153 15.7273H15.9482L16.3886 20.2159H16.4454L18.1783 15.7273H20.38L17.0278 23H15.1386L14.5846 18.9375H14.5278L12.6102 23H10.721Z" fill="black"/>
<path d="M25 12C25 9.79086 26.7909 8 29 8V25H25V12Z" fill="black"/>
<path d="M4 28C4 26.3431 5.34315 25 7 25L29 25V28L4 28Z" fill="black"/>
</svg>
