<svg width="228" height="64" viewBox="0 0 228 64" fill="none" xmlns="http://www.w3.org/2000/svg">
<path d="M46.3573 35.59C45.2973 35.59 44.3873 35.4 43.6273 35.02C42.8873 34.66 42.3273 34.18 41.9473 33.58C41.5873 32.98 41.4073 32.35 41.4073 31.69C41.4073 30.77 41.7073 29.99 42.3073 29.35C42.9273 28.71 43.7773 28.39 44.8573 28.39C45.1973 28.39 45.3673 28.48 45.3673 28.66C45.3673 28.74 45.2373 28.91 44.9773 29.17C44.7173 29.45 44.4873 29.78 44.2873 30.16C44.1073 30.54 44.0173 31.02 44.0173 31.6C44.0173 32.34 44.2673 32.95 44.7673 33.43C45.2673 33.91 45.9473 34.15 46.8073 34.15C48.0073 34.15 48.8973 33.69 49.4773 32.77C50.0773 31.87 50.3773 30.39 50.3773 28.33V25.75C48.9173 26.95 47.3173 27.55 45.5773 27.55C43.7373 27.55 42.1873 27.12 40.9273 26.26C39.6673 25.4 38.7173 24.23 38.0773 22.75C37.4573 21.27 37.1473 19.61 37.1473 17.77C37.1473 16.01 37.4773 14.4 38.1373 12.94C38.8173 11.48 39.8273 10.31 41.1673 9.43C42.5273 8.55 44.1773 8.11 46.1173 8.11C47.3773 8.11 48.5073 8.29 49.5073 8.65C50.5073 9.01 51.2873 9.52 51.8473 10.18C52.4073 10.82 52.6873 11.55 52.6873 12.37C52.6873 13.31 52.4073 14.08 51.8473 14.68C51.3073 15.28 50.6173 15.58 49.7773 15.58C49.5173 15.58 49.3573 15.56 49.2973 15.52C49.2573 15.48 49.2373 15.38 49.2373 15.22C49.2373 15.16 49.3073 15.01 49.4473 14.77C49.6073 14.51 49.7373 14.22 49.8373 13.9C49.9373 13.58 49.9873 13.2 49.9873 12.76C49.9873 11.82 49.6273 11.06 48.9073 10.48C48.2073 9.9 47.2773 9.61 46.1173 9.61C44.6973 9.61 43.5373 10.02 42.6373 10.84C41.7373 11.66 41.0873 12.68 40.6873 13.9C40.2873 15.12 40.0873 16.37 40.0873 17.65C40.0873 19.15 40.3173 20.52 40.7773 21.76C41.2373 23 41.8973 23.98 42.7573 24.7C43.6373 25.42 44.6473 25.78 45.7873 25.78C47.6273 25.78 49.1573 25.17 50.3773 23.95V22.57C50.3773 21.75 50.2473 21.18 49.9873 20.86C49.7473 20.52 49.2773 20.25 48.5773 20.05L48.0073 19.87L48.3073 18.91H54.0373L54.3673 19.39L54.0373 19.87C53.5773 20.47 53.2473 21.11 53.0473 21.79C52.8673 22.47 52.7773 23.35 52.7773 24.43V27.55C52.7773 32.91 50.6373 35.59 46.3573 35.59ZM58.6573 28.39C57.7773 28.39 56.9573 28.14 56.1973 27.64C55.4573 27.12 54.8573 26.37 54.3973 25.39C53.9573 24.39 53.7373 23.18 53.7373 21.76C53.7373 19.42 54.3673 17.57 55.6273 16.21C56.9073 14.85 58.6273 14.17 60.7873 14.17C61.5073 14.17 62.4873 14.28 63.7273 14.5C64.6473 14.66 65.4773 14.77 66.2173 14.83L66.5773 15.16L66.1873 15.67C66.0473 15.91 65.9473 16.1 65.8873 16.24C65.8473 16.36 65.8273 16.53 65.8273 16.75V25.6C65.8273 26.16 66.1173 26.44 66.6973 26.44C67.1373 26.44 67.5873 26.28 68.0473 25.96L68.5573 26.65C68.0773 27.19 67.5673 27.62 67.0273 27.94C66.4873 28.24 65.9973 28.39 65.5573 28.39C64.7973 28.39 64.2473 28.17 63.9073 27.73C63.5673 27.27 63.3973 26.53 63.3973 25.51C62.6773 26.57 61.9273 27.32 61.1473 27.76C60.3873 28.18 59.5573 28.39 58.6573 28.39ZM59.7073 26.26C61.2273 26.26 62.4573 25.44 63.3973 23.8V16.45C62.6173 15.93 61.7373 15.67 60.7573 15.67C59.4573 15.67 58.4373 16.16 57.6973 17.14C56.9773 18.1 56.6173 19.47 56.6173 21.25C56.6173 22.97 56.9073 24.24 57.4873 25.06C58.0873 25.86 58.8273 26.26 59.7073 26.26ZM73.4443 28.39C72.1443 28.39 71.1343 28 70.4143 27.22C69.6943 26.42 69.3343 25.31 69.3343 23.89V17.11C69.3343 16.67 69.1543 16.45 68.7943 16.45H67.5643L67.3543 15.79C67.8143 15.31 68.3743 14.92 69.0343 14.62C69.7143 14.32 70.3343 14.17 70.8943 14.17C71.1543 14.17 71.3643 14.25 71.5243 14.41C71.7043 14.55 71.7943 14.74 71.7943 14.98V23.23C71.7943 24.31 72.0143 25.14 72.4543 25.72C72.8943 26.28 73.5443 26.56 74.4043 26.56C75.6243 26.56 76.5743 26.04 77.2543 25C77.9343 23.94 78.2743 22.48 78.2743 20.62C78.2743 19.3 78.1943 18.27 78.0343 17.53C77.8943 16.77 77.6143 16.03 77.1943 15.31L76.8643 14.89L77.1943 14.5L80.5543 14.17V25.6C80.5543 26.16 80.7943 26.44 81.2743 26.44C81.7343 26.44 82.1843 26.28 82.6243 25.96L83.1643 26.65C82.7243 27.17 82.2243 27.59 81.6643 27.91C81.1243 28.23 80.6143 28.39 80.1343 28.39C79.4143 28.39 78.8943 28.18 78.5743 27.76C78.2543 27.32 78.0943 26.65 78.0943 25.75C77.6543 26.57 77.0243 27.22 76.2043 27.7C75.3843 28.16 74.4643 28.39 73.4443 28.39ZM82.6622 27.16L83.1722 27.01C83.6522 26.93 83.9622 26.75 84.1022 26.47C84.2622 26.17 84.3422 25.67 84.3422 24.97V17.35C84.3422 17.13 84.3022 16.98 84.2222 16.9C84.1422 16.8 84.0022 16.75 83.8022 16.75H82.6322L82.3622 16.03C82.8822 15.55 83.4822 15.16 84.1622 14.86C84.8422 14.56 85.4422 14.41 85.9622 14.41C86.2222 14.41 86.4322 14.49 86.5922 14.65C86.7522 14.81 86.8322 15.01 86.8322 15.25V18.22H86.9822C87.3022 17 87.7822 16.02 88.4222 15.28C89.0822 14.54 89.7922 14.17 90.5522 14.17C91.3122 14.17 91.9322 14.42 92.4122 14.92C92.9122 15.4 93.1622 16.07 93.1622 16.93C93.1622 17.61 92.9122 18.18 92.4122 18.64C91.9122 19.1 91.2822 19.33 90.5222 19.33C90.1622 19.33 89.9822 19.24 89.9822 19.06C89.9822 19 90.0522 18.86 90.1922 18.64C90.3322 18.42 90.4522 18.2 90.5522 17.98C90.6522 17.76 90.7022 17.5 90.7022 17.2C90.7022 16.86 90.6222 16.6 90.4622 16.42C90.3022 16.22 90.0922 16.12 89.8322 16.12C89.4122 16.12 88.9722 16.38 88.5122 16.9C88.0522 17.42 87.6522 18.25 87.3122 19.39C86.9922 20.53 86.8322 21.98 86.8322 23.74C86.8322 24.56 86.8922 25.23 87.0122 25.75C87.1522 26.25 87.3822 26.72 87.7022 27.16L88.0322 27.58L87.7022 28H82.9322L82.6622 27.16ZM94.9168 11.89C94.6168 11.89 94.2668 11.68 93.8668 11.26C93.4668 10.84 93.2668 10.46 93.2668 10.12C93.2668 9.78 93.4568 9.4 93.8368 8.98C94.2368 8.56 94.5968 8.35 94.9168 8.35C95.2568 8.35 95.6268 8.56 96.0268 8.98C96.4268 9.4 96.6268 9.78 96.6268 10.12C96.6268 10.46 96.4268 10.84 96.0268 11.26C95.6268 11.68 95.2568 11.89 94.9168 11.89ZM95.8168 28.39C95.0768 28.39 94.5368 28.17 94.1968 27.73C93.8768 27.27 93.7168 26.53 93.7168 25.51V17.11C93.7168 16.87 93.6768 16.7 93.5968 16.6C93.5168 16.5 93.3768 16.45 93.1768 16.45H91.9468L91.7368 15.79C92.2568 15.31 92.8468 14.92 93.5068 14.62C94.1868 14.32 94.7768 14.17 95.2768 14.17C95.5368 14.17 95.7468 14.25 95.9068 14.41C96.0868 14.55 96.1768 14.74 96.1768 14.98V25.6C96.1768 26.22 96.4468 26.53 96.9868 26.53C97.4068 26.53 97.8668 26.34 98.3668 25.96L98.8768 26.65C98.3768 27.17 97.8468 27.59 97.2868 27.91C96.7468 28.23 96.2568 28.39 95.8168 28.39ZM103.054 28.39C101.694 28.39 100.564 28.08 99.6636 27.46C98.7636 26.82 98.3136 25.99 98.3136 24.97C98.3136 24.37 98.5236 23.87 98.9436 23.47C99.3836 23.05 99.9336 22.84 100.594 22.84C100.734 22.84 100.864 22.87 100.984 22.93C101.104 22.99 101.164 23.07 101.164 23.17C101.164 23.23 101.104 23.41 100.984 23.71C100.864 23.99 100.804 24.33 100.804 24.73C100.804 25.47 101.064 26.04 101.584 26.44C102.124 26.84 102.724 27.04 103.384 27.04C104.144 27.04 104.764 26.84 105.244 26.44C105.724 26.04 105.964 25.52 105.964 24.88C105.964 24.3 105.704 23.82 105.184 23.44C104.684 23.06 103.954 22.67 102.994 22.27C102.114 21.89 101.374 21.53 100.774 21.19C100.194 20.85 99.6936 20.4 99.2736 19.84C98.8536 19.28 98.6436 18.6 98.6436 17.8C98.6436 16.74 99.1136 15.87 100.054 15.19C100.994 14.51 102.174 14.17 103.594 14.17C104.894 14.17 105.964 14.42 106.804 14.92C107.644 15.4 108.064 16.07 108.064 16.93C108.064 17.63 107.854 18.2 107.434 18.64C107.014 19.08 106.464 19.3 105.784 19.3C105.384 19.3 105.184 19.17 105.184 18.91C105.184 18.83 105.254 18.65 105.394 18.37C105.554 18.09 105.634 17.77 105.634 17.41C105.634 16.77 105.404 16.29 104.944 15.97C104.484 15.63 103.964 15.46 103.384 15.46C102.644 15.46 102.054 15.64 101.614 16C101.194 16.36 100.984 16.83 100.984 17.41C100.984 18.09 101.264 18.65 101.824 19.09C102.384 19.51 103.174 19.91 104.194 20.29C105.074 20.67 105.804 21.02 106.384 21.34C106.964 21.66 107.454 22.07 107.854 22.57C108.254 23.05 108.454 23.62 108.454 24.28C108.454 25.52 107.954 26.52 106.954 27.28C105.974 28.02 104.674 28.39 103.054 28.39ZM121.28 28.45C120.54 28.45 120.01 28.22 119.69 27.76C119.37 27.3 119.21 26.56 119.21 25.54V19.09C119.21 18.15 119.02 17.44 118.64 16.96C118.28 16.48 117.69 16.24 116.87 16.24C116.09 16.24 115.4 16.55 114.8 17.17C114.2 17.79 113.73 18.66 113.39 19.78C113.07 20.9 112.91 22.19 112.91 23.65C112.91 24.49 112.97 25.17 113.09 25.69C113.23 26.21 113.47 26.7 113.81 27.16L114.14 27.58L113.81 28H109.04L108.71 27.16L109.31 27.01C109.77 26.93 110.07 26.75 110.21 26.47C110.37 26.17 110.45 25.67 110.45 24.97V9.67C110.45 9.45 110.41 9.3 110.33 9.22C110.25 9.12 110.11 9.07 109.91 9.07H108.68L108.47 8.38C108.99 7.9 109.58 7.51 110.24 7.21C110.92 6.89 111.51 6.73 112.01 6.73C112.27 6.73 112.48 6.81 112.64 6.97C112.82 7.13 112.91 7.34 112.91 7.6V18.22C113.37 17.04 114.08 16.07 115.04 15.31C116 14.55 117 14.17 118.04 14.17C119.36 14.17 120.29 14.56 120.83 15.34C121.39 16.1 121.67 17.35 121.67 19.09V25.66C121.67 26.28 121.93 26.59 122.45 26.59C122.87 26.59 123.32 26.41 123.8 26.05L124.37 26.71C123.87 27.25 123.34 27.68 122.78 28C122.24 28.3 121.74 28.45 121.28 28.45ZM128.574 28.39C127.694 28.39 126.874 28.14 126.114 27.64C125.374 27.12 124.774 26.37 124.314 25.39C123.874 24.39 123.654 23.18 123.654 21.76C123.654 19.42 124.284 17.57 125.544 16.21C126.824 14.85 128.544 14.17 130.704 14.17C131.424 14.17 132.404 14.28 133.644 14.5C134.564 14.66 135.394 14.77 136.134 14.83L136.494 15.16L136.104 15.67C135.964 15.91 135.864 16.1 135.804 16.24C135.764 16.36 135.744 16.53 135.744 16.75V25.6C135.744 26.16 136.034 26.44 136.614 26.44C137.054 26.44 137.504 26.28 137.964 25.96L138.474 26.65C137.994 27.19 137.484 27.62 136.944 27.94C136.404 28.24 135.914 28.39 135.474 28.39C134.714 28.39 134.164 28.17 133.824 27.73C133.484 27.27 133.314 26.53 133.314 25.51C132.594 26.57 131.844 27.32 131.064 27.76C130.304 28.18 129.474 28.39 128.574 28.39ZM129.624 26.26C131.144 26.26 132.374 25.44 133.314 23.8V16.45C132.534 15.93 131.654 15.67 130.674 15.67C129.374 15.67 128.354 16.16 127.614 17.14C126.894 18.1 126.534 19.47 126.534 21.25C126.534 22.97 126.824 24.24 127.404 25.06C128.004 25.86 128.744 26.26 129.624 26.26ZM150.321 28.39C149.581 28.39 149.051 28.17 148.731 27.73C148.411 27.27 148.251 26.53 148.251 25.51V19.03C148.251 18.11 148.051 17.42 147.651 16.96C147.251 16.48 146.661 16.24 145.881 16.24C145.101 16.24 144.411 16.55 143.811 17.17C143.231 17.79 142.781 18.66 142.461 19.78C142.141 20.9 141.981 22.19 141.981 23.65C141.981 24.49 142.041 25.17 142.161 25.69C142.301 26.21 142.531 26.7 142.851 27.16L143.181 27.58L142.851 28H138.081L137.811 27.16L138.321 27.01C138.801 26.93 139.111 26.75 139.251 26.47C139.411 26.17 139.491 25.67 139.491 24.97V17.35C139.491 17.13 139.451 16.98 139.371 16.9C139.291 16.8 139.151 16.75 138.951 16.75H137.781L137.511 16.03C138.031 15.55 138.631 15.16 139.311 14.86C139.991 14.56 140.591 14.41 141.111 14.41C141.371 14.41 141.581 14.49 141.741 14.65C141.901 14.81 141.981 15.01 141.981 15.25V18.22C142.441 17.04 143.141 16.07 144.081 15.31C145.021 14.55 146.011 14.17 147.051 14.17C148.311 14.17 149.231 14.56 149.811 15.34C150.411 16.12 150.711 17.35 150.711 19.03V25.6C150.711 26.22 150.981 26.53 151.521 26.53C151.961 26.53 152.411 26.34 152.871 25.96L153.381 26.65C152.921 27.17 152.411 27.59 151.851 27.91C151.291 28.23 150.781 28.39 150.321 28.39ZM163.882 28.39C163.322 28.39 162.862 28.28 162.502 28.06C162.162 27.86 161.862 27.58 161.602 27.22C161.362 26.84 161.042 26.27 160.642 25.51L158.602 21.67L158.362 21.58C158.022 21.5 157.852 21.32 157.852 21.04C157.852 20.92 157.882 20.8 157.942 20.68C158.022 20.56 158.132 20.5 158.272 20.5C158.332 20.5 158.512 20.55 158.812 20.65C159.112 20.73 159.502 20.77 159.982 20.77C160.962 20.77 161.732 20.48 162.292 19.9C162.852 19.32 163.132 18.66 163.132 17.92C163.132 17.38 162.972 16.93 162.652 16.57C162.332 16.19 161.872 16 161.272 16C159.932 16 158.862 16.7 158.062 18.1C157.282 19.5 156.892 21.35 156.892 23.65C156.892 24.51 156.952 25.2 157.072 25.72C157.212 26.24 157.452 26.72 157.792 27.16L158.122 27.58L157.792 28H153.022L152.692 27.16L153.292 27.01C153.752 26.93 154.052 26.75 154.192 26.47C154.352 26.17 154.432 25.67 154.432 24.97V9.67C154.432 9.45 154.392 9.3 154.312 9.22C154.232 9.12 154.092 9.07 153.892 9.07H152.662L152.452 8.38C152.972 7.9 153.562 7.51 154.222 7.21C154.902 6.89 155.492 6.73 155.992 6.73C156.252 6.73 156.462 6.81 156.622 6.97C156.802 7.13 156.892 7.34 156.892 7.6V18.22C157.352 17.02 158.032 16.05 158.932 15.31C159.852 14.55 160.822 14.17 161.842 14.17C163.042 14.17 163.962 14.51 164.602 15.19C165.262 15.87 165.592 16.7 165.592 17.68C165.592 18.7 165.232 19.62 164.512 20.44C163.792 21.24 162.812 21.71 161.572 21.85L163.642 25.9C163.922 26.4 164.302 26.65 164.782 26.65C165.042 26.65 165.302 26.59 165.562 26.47C165.822 26.33 166.042 26.16 166.222 25.96L166.822 26.65C165.962 27.81 164.982 28.39 163.882 28.39ZM171.061 28.39C170.181 28.39 169.361 28.14 168.601 27.64C167.861 27.12 167.261 26.37 166.801 25.39C166.361 24.39 166.141 23.18 166.141 21.76C166.141 19.42 166.771 17.57 168.031 16.21C169.311 14.85 171.031 14.17 173.191 14.17C173.911 14.17 174.891 14.28 176.131 14.5C177.051 14.66 177.881 14.77 178.621 14.83L178.981 15.16L178.591 15.67C178.451 15.91 178.351 16.1 178.291 16.24C178.251 16.36 178.231 16.53 178.231 16.75V25.6C178.231 26.16 178.521 26.44 179.101 26.44C179.541 26.44 179.991 26.28 180.451 25.96L180.961 26.65C180.481 27.19 179.971 27.62 179.431 27.94C178.891 28.24 178.401 28.39 177.961 28.39C177.201 28.39 176.651 28.17 176.311 27.73C175.971 27.27 175.801 26.53 175.801 25.51C175.081 26.57 174.331 27.32 173.551 27.76C172.791 28.18 171.961 28.39 171.061 28.39ZM172.111 26.26C173.631 26.26 174.861 25.44 175.801 23.8V16.45C175.021 15.93 174.141 15.67 173.161 15.67C171.861 15.67 170.841 16.16 170.101 17.14C169.381 18.1 169.021 19.47 169.021 21.25C169.021 22.97 169.311 24.24 169.891 25.06C170.491 25.86 171.231 26.26 172.111 26.26ZM180.298 27.16L180.808 27.01C181.288 26.93 181.598 26.75 181.738 26.47C181.898 26.17 181.978 25.67 181.978 24.97V17.35C181.978 17.13 181.938 16.98 181.858 16.9C181.778 16.8 181.638 16.75 181.438 16.75H180.268L179.998 16.03C180.518 15.55 181.118 15.16 181.798 14.86C182.478 14.56 183.078 14.41 183.598 14.41C183.858 14.41 184.068 14.49 184.228 14.65C184.388 14.81 184.468 15.01 184.468 15.25V18.22H184.618C184.938 17 185.418 16.02 186.058 15.28C186.718 14.54 187.428 14.17 188.188 14.17C188.948 14.17 189.568 14.42 190.048 14.92C190.548 15.4 190.798 16.07 190.798 16.93C190.798 17.61 190.548 18.18 190.048 18.64C189.548 19.1 188.918 19.33 188.158 19.33C187.798 19.33 187.618 19.24 187.618 19.06C187.618 19 187.688 18.86 187.828 18.64C187.968 18.42 188.088 18.2 188.188 17.98C188.288 17.76 188.338 17.5 188.338 17.2C188.338 16.86 188.258 16.6 188.098 16.42C187.938 16.22 187.728 16.12 187.468 16.12C187.048 16.12 186.608 16.38 186.148 16.9C185.688 17.42 185.288 18.25 184.948 19.39C184.628 20.53 184.468 21.98 184.468 23.74C184.468 24.56 184.528 25.23 184.648 25.75C184.788 26.25 185.018 26.72 185.338 27.16L185.668 27.58L185.338 28H180.568L180.298 27.16ZM35.3972 56.55L35.7272 56.07C36.1872 55.47 36.5072 54.85 36.6872 54.21C36.8672 53.55 36.9572 52.66 36.9572 51.54V41.1C36.9572 40.24 36.8972 39.68 36.7772 39.42C36.6572 39.14 36.3972 39 35.9972 39H34.7672C34.1072 39 33.5972 39.07 33.2372 39.21C32.8972 39.35 32.6172 39.59 32.3972 39.93C32.1972 40.27 32.0072 40.77 31.8272 41.43L31.6772 42.09L30.7472 41.76V36.93L31.1972 36.57L31.6772 36.93C32.1572 37.31 33.1772 37.5 34.7372 37.5H41.8472C43.4272 37.5 44.4472 37.31 44.9072 36.93L45.3872 36.57L45.8372 36.93V41.76L44.9072 42.09L44.7572 41.43C44.4972 40.45 44.1772 39.8 43.7972 39.48C43.4172 39.16 42.7572 39 41.8172 39H40.5572C40.1772 39 39.9172 39.14 39.7772 39.42C39.6572 39.7 39.5972 40.26 39.5972 41.1V53.4C39.5972 54.24 39.7072 54.82 39.9272 55.14C40.1672 55.44 40.6472 55.7 41.3672 55.92L42.0272 56.07L41.6972 57H35.7272L35.3972 56.55ZM49.7883 57.39C47.7483 57.39 46.1283 56.75 44.9283 55.47C43.7283 54.17 43.1283 52.43 43.1283 50.25C43.1283 48.07 43.7283 46.35 44.9283 45.09C46.1283 43.81 47.7483 43.17 49.7883 43.17C51.1283 43.17 52.2983 43.46 53.2983 44.04C54.2983 44.62 55.0683 45.44 55.6083 46.5C56.1483 47.56 56.4183 48.81 56.4183 50.25C56.4183 51.69 56.1383 52.95 55.5783 54.03C55.0383 55.11 54.2683 55.94 53.2683 56.52C52.2683 57.1 51.1083 57.39 49.7883 57.39ZM49.7283 55.92C50.8683 55.92 51.7883 55.41 52.4883 54.39C53.2083 53.35 53.5683 51.99 53.5683 50.31C53.5683 49.45 53.4483 48.59 53.2083 47.73C52.9683 46.85 52.5683 46.11 52.0083 45.51C51.4683 44.89 50.7583 44.58 49.8783 44.58C48.6983 44.58 47.7483 45.1 47.0283 46.14C46.3283 47.18 45.9783 48.56 45.9783 50.28C45.9783 52 46.3083 53.37 46.9683 54.39C47.6483 55.41 48.5683 55.92 49.7283 55.92ZM62.1614 57.39C60.8614 57.39 59.8514 57 59.1314 56.22C58.4114 55.42 58.0514 54.31 58.0514 52.89V46.11C58.0514 45.67 57.8714 45.45 57.5114 45.45H56.2814L56.0714 44.79C56.5314 44.31 57.0914 43.92 57.7514 43.62C58.4314 43.32 59.0514 43.17 59.6114 43.17C59.8714 43.17 60.0814 43.25 60.2414 43.41C60.4214 43.55 60.5114 43.74 60.5114 43.98V52.23C60.5114 53.31 60.7314 54.14 61.1714 54.72C61.6114 55.28 62.2614 55.56 63.1214 55.56C64.3414 55.56 65.2914 55.04 65.9714 54C66.6514 52.94 66.9914 51.48 66.9914 49.62C66.9914 48.3 66.9114 47.27 66.7514 46.53C66.6114 45.77 66.3314 45.03 65.9114 44.31L65.5814 43.89L65.9114 43.5L69.2714 43.17V54.6C69.2714 55.16 69.5114 55.44 69.9914 55.44C70.4515 55.44 70.9015 55.28 71.3414 54.96L71.8814 55.65C71.4415 56.17 70.9415 56.59 70.3814 56.91C69.8414 57.23 69.3314 57.39 68.8514 57.39C68.1314 57.39 67.6114 57.18 67.2914 56.76C66.9714 56.32 66.8114 55.65 66.8114 54.75C66.3714 55.57 65.7414 56.22 64.9214 56.7C64.1014 57.16 63.1814 57.39 62.1614 57.39ZM71.3794 56.16L71.8894 56.01C72.3694 55.93 72.6794 55.75 72.8194 55.47C72.9794 55.17 73.0594 54.67 73.0594 53.97V46.35C73.0594 46.13 73.0194 45.98 72.9394 45.9C72.8594 45.8 72.7194 45.75 72.5194 45.75H71.3494L71.0794 45.03C71.5994 44.55 72.1994 44.16 72.8794 43.86C73.5594 43.56 74.1594 43.41 74.6794 43.41C74.9394 43.41 75.1494 43.49 75.3094 43.65C75.4694 43.81 75.5494 44.01 75.5494 44.25V47.22H75.6994C76.0194 46 76.4994 45.02 77.1394 44.28C77.7994 43.54 78.5094 43.17 79.2694 43.17C80.0294 43.17 80.6494 43.42 81.1294 43.92C81.6294 44.4 81.8794 45.07 81.8794 45.93C81.8794 46.61 81.6294 47.18 81.1294 47.64C80.6294 48.1 79.9994 48.33 79.2394 48.33C78.8794 48.33 78.6994 48.24 78.6994 48.06C78.6994 48 78.7694 47.86 78.9094 47.64C79.0494 47.42 79.1694 47.2 79.2694 46.98C79.3694 46.76 79.4194 46.5 79.4194 46.2C79.4194 45.86 79.3394 45.6 79.1794 45.42C79.0194 45.22 78.8094 45.12 78.5494 45.12C78.1294 45.12 77.6894 45.38 77.2294 45.9C76.7694 46.42 76.3694 47.25 76.0294 48.39C75.7094 49.53 75.5494 50.98 75.5494 52.74C75.5494 53.56 75.6094 54.23 75.7294 54.75C75.8694 55.25 76.0994 55.72 76.4194 56.16L76.7494 56.58L76.4194 57H71.6494L71.3794 56.16ZM85.704 57.39C84.344 57.39 83.214 57.08 82.314 56.46C81.4139 55.82 80.9639 54.99 80.9639 53.97C80.9639 53.37 81.1739 52.87 81.5939 52.47C82.034 52.05 82.584 51.84 83.2439 51.84C83.3839 51.84 83.5139 51.87 83.634 51.93C83.754 51.99 83.814 52.07 83.814 52.17C83.814 52.23 83.754 52.41 83.634 52.71C83.5139 52.99 83.4539 53.33 83.4539 53.73C83.4539 54.47 83.7139 55.04 84.234 55.44C84.774 55.84 85.374 56.04 86.034 56.04C86.794 56.04 87.414 55.84 87.8939 55.44C88.374 55.04 88.614 54.52 88.614 53.88C88.614 53.3 88.354 52.82 87.834 52.44C87.334 52.06 86.604 51.67 85.644 51.27C84.764 50.89 84.024 50.53 83.424 50.19C82.844 49.85 82.344 49.4 81.9239 48.84C81.5039 48.28 81.2939 47.6 81.2939 46.8C81.2939 45.74 81.764 44.87 82.704 44.19C83.644 43.51 84.824 43.17 86.244 43.17C87.544 43.17 88.614 43.42 89.454 43.92C90.294 44.4 90.714 45.07 90.714 45.93C90.714 46.63 90.504 47.2 90.084 47.64C89.664 48.08 89.114 48.3 88.434 48.3C88.034 48.3 87.834 48.17 87.834 47.91C87.834 47.83 87.904 47.65 88.044 47.37C88.204 47.09 88.284 46.77 88.284 46.41C88.284 45.77 88.054 45.29 87.594 44.97C87.134 44.63 86.614 44.46 86.034 44.46C85.294 44.46 84.704 44.64 84.264 45C83.844 45.36 83.634 45.83 83.634 46.41C83.634 47.09 83.914 47.65 84.474 48.09C85.034 48.51 85.824 48.91 86.844 49.29C87.724 49.67 88.454 50.02 89.034 50.34C89.614 50.66 90.104 51.07 90.504 51.57C90.904 52.05 91.104 52.62 91.104 53.28C91.104 54.52 90.604 55.52 89.604 56.28C88.624 57.02 87.324 57.39 85.704 57.39ZM110.908 57.39C110.168 57.39 109.638 57.17 109.318 56.73C108.998 56.27 108.838 55.53 108.838 54.51V48.03C108.838 47.11 108.638 46.42 108.238 45.96C107.838 45.48 107.248 45.24 106.468 45.24C105.688 45.24 104.998 45.55 104.398 46.17C103.818 46.79 103.368 47.66 103.048 48.78C102.728 49.9 102.568 51.19 102.568 52.65C102.568 53.49 102.628 54.17 102.748 54.69C102.888 55.21 103.118 55.7 103.438 56.16L103.768 56.58L103.438 57H98.6682L98.3982 56.16L98.9082 56.01C99.3882 55.93 99.6982 55.75 99.8382 55.47C99.9982 55.17 100.078 54.67 100.078 53.97V46.35C100.078 46.13 100.038 45.98 99.9582 45.9C99.8782 45.8 99.7382 45.75 99.5382 45.75H98.3682L98.0982 45.03C98.6182 44.55 99.2182 44.16 99.8982 43.86C100.578 43.56 101.178 43.41 101.698 43.41C101.958 43.41 102.168 43.49 102.328 43.65C102.488 43.81 102.568 44.01 102.568 44.25V47.22C103.028 46.04 103.728 45.07 104.668 44.31C105.608 43.55 106.598 43.17 107.638 43.17C108.898 43.17 109.818 43.56 110.398 44.34C110.998 45.12 111.298 46.35 111.298 48.03V54.6C111.298 55.22 111.568 55.53 112.108 55.53C112.548 55.53 112.998 55.34 113.458 54.96L113.968 55.65C113.508 56.17 112.998 56.59 112.438 56.91C111.878 57.23 111.368 57.39 110.908 57.39ZM124.127 56.55L124.457 56.07C124.917 55.47 125.237 54.85 125.417 54.21C125.597 53.55 125.687 52.66 125.687 51.54V41.1C125.687 40.24 125.627 39.68 125.507 39.42C125.387 39.14 125.127 39 124.727 39H123.497C122.837 39 122.327 39.07 121.967 39.21C121.627 39.35 121.347 39.59 121.127 39.93C120.927 40.27 120.737 40.77 120.557 41.43L120.407 42.09L119.477 41.76V36.93L119.927 36.57L120.407 36.93C120.887 37.31 121.907 37.5 123.467 37.5H130.577C132.157 37.5 133.177 37.31 133.637 36.93L134.117 36.57L134.567 36.93V41.76L133.637 42.09L133.487 41.43C133.227 40.45 132.907 39.8 132.527 39.48C132.147 39.16 131.487 39 130.547 39H129.287C128.907 39 128.647 39.14 128.507 39.42C128.387 39.7 128.327 40.26 128.327 41.1V53.4C128.327 54.24 128.437 54.82 128.657 55.14C128.897 55.44 129.377 55.7 130.097 55.92L130.757 56.07L130.427 57H124.457L124.127 56.55ZM136.046 57.39C135.166 57.39 134.346 57.14 133.586 56.64C132.846 56.12 132.246 55.37 131.786 54.39C131.346 53.39 131.126 52.18 131.126 50.76C131.126 48.42 131.756 46.57 133.016 45.21C134.296 43.85 136.016 43.17 138.176 43.17C138.896 43.17 139.876 43.28 141.116 43.5C142.036 43.66 142.866 43.77 143.606 43.83L143.966 44.16L143.576 44.67C143.436 44.91 143.336 45.1 143.276 45.24C143.236 45.36 143.216 45.53 143.216 45.75V54.6C143.216 55.16 143.506 55.44 144.086 55.44C144.526 55.44 144.976 55.28 145.436 54.96L145.946 55.65C145.466 56.19 144.956 56.62 144.416 56.94C143.876 57.24 143.386 57.39 142.946 57.39C142.186 57.39 141.636 57.17 141.296 56.73C140.956 56.27 140.786 55.53 140.786 54.51C140.066 55.57 139.316 56.32 138.536 56.76C137.776 57.18 136.946 57.39 136.046 57.39ZM137.096 55.26C138.616 55.26 139.846 54.44 140.786 52.8V45.45C140.006 44.93 139.126 44.67 138.146 44.67C136.846 44.67 135.826 45.16 135.086 46.14C134.366 47.1 134.006 48.47 134.006 50.25C134.006 51.97 134.296 53.24 134.876 54.06C135.476 54.86 136.216 55.26 137.096 55.26ZM145.283 56.16L145.793 56.01C146.273 55.93 146.583 55.75 146.723 55.47C146.883 55.17 146.963 54.67 146.963 53.97V46.35C146.963 46.13 146.923 45.98 146.843 45.9C146.763 45.8 146.623 45.75 146.423 45.75H145.253L144.983 45.03C145.503 44.55 146.103 44.16 146.783 43.86C147.463 43.56 148.063 43.41 148.583 43.41C148.843 43.41 149.053 43.49 149.213 43.65C149.373 43.81 149.453 44.01 149.453 44.25V47.22H149.603C149.923 46 150.403 45.02 151.043 44.28C151.703 43.54 152.413 43.17 153.173 43.17C153.933 43.17 154.553 43.42 155.033 43.92C155.533 44.4 155.783 45.07 155.783 45.93C155.783 46.61 155.533 47.18 155.033 47.64C154.533 48.1 153.903 48.33 153.143 48.33C152.783 48.33 152.603 48.24 152.603 48.06C152.603 48 152.673 47.86 152.813 47.64C152.953 47.42 153.073 47.2 153.173 46.98C153.273 46.76 153.323 46.5 153.323 46.2C153.323 45.86 153.243 45.6 153.083 45.42C152.923 45.22 152.713 45.12 152.453 45.12C152.033 45.12 151.593 45.38 151.133 45.9C150.673 46.42 150.273 47.25 149.933 48.39C149.613 49.53 149.453 50.98 149.453 52.74C149.453 53.56 149.513 54.23 149.633 54.75C149.773 55.25 150.003 55.72 150.323 56.16L150.653 56.58L150.323 57H145.553L145.283 56.16ZM160.657 57.39C159.717 57.39 158.957 57.21 158.377 56.85C157.817 56.49 157.367 55.92 157.027 55.14C156.707 54.34 156.447 53.23 156.247 51.81L155.347 46.11C155.307 45.85 155.257 45.68 155.197 45.6C155.137 45.5 155.017 45.45 154.837 45.45H153.667L153.397 44.79C153.877 44.33 154.437 43.95 155.077 43.65C155.737 43.33 156.317 43.17 156.817 43.17C157.317 43.17 157.617 43.44 157.717 43.98L158.917 52.53C159.077 53.61 159.317 54.4 159.637 54.9C159.957 55.38 160.417 55.62 161.017 55.62C162.137 55.62 162.987 54.98 163.567 53.7C164.147 52.42 164.437 50.86 164.437 49.02C164.437 48.16 164.327 47.32 164.107 46.5C163.907 45.66 163.607 44.92 163.207 44.28L162.967 43.86L163.267 43.53L166.537 43.17C166.617 44.45 166.657 45.41 166.657 46.05C166.657 48.45 166.377 50.51 165.817 52.23C165.277 53.93 164.547 55.22 163.627 56.1C162.727 56.96 161.737 57.39 160.657 57.39ZM173.467 57.39C172.207 57.39 171.107 57.1 170.167 56.52C169.227 55.94 168.497 55.13 167.977 54.09C167.457 53.03 167.197 51.81 167.197 50.43C167.197 48.99 167.487 47.72 168.067 46.62C168.647 45.52 169.467 44.67 170.527 44.07C171.607 43.47 172.847 43.17 174.247 43.17C175.727 43.17 176.867 43.56 177.667 44.34C178.487 45.12 178.897 46.06 178.897 47.16C178.897 47.92 178.687 48.65 178.267 49.35C177.867 50.05 177.267 50.62 176.467 51.06C175.687 51.5 174.767 51.72 173.707 51.72C173.107 51.72 172.457 51.62 171.757 51.42C171.057 51.2 170.707 50.88 170.707 50.46C170.707 50.3 170.747 50.16 170.827 50.04C170.907 49.92 170.997 49.86 171.097 49.86C171.157 49.86 171.337 49.92 171.637 50.04C171.957 50.14 172.367 50.19 172.867 50.19C173.967 50.19 174.817 49.89 175.417 49.29C176.017 48.69 176.317 47.97 176.317 47.13C176.317 46.41 176.077 45.79 175.597 45.27C175.137 44.75 174.517 44.49 173.737 44.49C172.557 44.49 171.637 45.01 170.977 46.05C170.337 47.07 170.017 48.53 170.017 50.43C170.017 52.05 170.357 53.32 171.037 54.24C171.737 55.14 172.737 55.59 174.037 55.59C175.637 55.59 176.957 55.07 177.997 54.03C178.057 53.97 178.137 53.94 178.237 53.94C178.397 53.94 178.557 54.02 178.717 54.18C178.897 54.34 178.987 54.51 178.987 54.69C178.987 54.75 178.967 54.81 178.927 54.87C178.887 54.91 178.867 54.94 178.867 54.96C178.187 55.76 177.377 56.37 176.437 56.79C175.517 57.19 174.527 57.39 173.467 57.39ZM182.723 57.39C181.963 57.39 181.413 57.17 181.073 56.73C180.753 56.27 180.593 55.53 180.593 54.51V38.67C180.593 38.45 180.553 38.3 180.473 38.22C180.393 38.12 180.253 38.07 180.053 38.07H178.883L178.613 37.38C179.133 36.9 179.733 36.51 180.413 36.21C181.093 35.89 181.703 35.73 182.243 35.73C182.503 35.73 182.713 35.81 182.873 35.97C183.033 36.13 183.113 36.34 183.113 36.6L183.053 54.6C183.053 54.9 183.123 55.13 183.263 55.29C183.403 55.45 183.603 55.53 183.863 55.53C184.363 55.53 184.813 55.34 185.213 54.96L185.753 55.65C185.293 56.17 184.783 56.59 184.223 56.91C183.663 57.23 183.163 57.39 182.723 57.39ZM189.936 57.39C188.576 57.39 187.446 57.08 186.546 56.46C185.646 55.82 185.196 54.99 185.196 53.97C185.196 53.37 185.406 52.87 185.826 52.47C186.266 52.05 186.816 51.84 187.476 51.84C187.616 51.84 187.746 51.87 187.866 51.93C187.986 51.99 188.046 52.07 188.046 52.17C188.046 52.23 187.986 52.41 187.866 52.71C187.746 52.99 187.686 53.33 187.686 53.73C187.686 54.47 187.946 55.04 188.466 55.44C189.006 55.84 189.606 56.04 190.266 56.04C191.026 56.04 191.646 55.84 192.126 55.44C192.606 55.04 192.846 54.52 192.846 53.88C192.846 53.3 192.586 52.82 192.066 52.44C191.566 52.06 190.836 51.67 189.876 51.27C188.996 50.89 188.256 50.53 187.656 50.19C187.076 49.85 186.576 49.4 186.156 48.84C185.736 48.28 185.526 47.6 185.526 46.8C185.526 45.74 185.996 44.87 186.936 44.19C187.876 43.51 189.056 43.17 190.476 43.17C191.776 43.17 192.846 43.42 193.686 43.92C194.526 44.4 194.946 45.07 194.946 45.93C194.946 46.63 194.736 47.2 194.316 47.64C193.896 48.08 193.346 48.3 192.666 48.3C192.266 48.3 192.066 48.17 192.066 47.91C192.066 47.83 192.136 47.65 192.276 47.37C192.436 47.09 192.516 46.77 192.516 46.41C192.516 45.77 192.286 45.29 191.826 44.97C191.366 44.63 190.846 44.46 190.266 44.46C189.526 44.46 188.936 44.64 188.496 45C188.076 45.36 187.866 45.83 187.866 46.41C187.866 47.09 188.146 47.65 188.706 48.09C189.266 48.51 190.056 48.91 191.076 49.29C191.956 49.67 192.686 50.02 193.266 50.34C193.846 50.66 194.336 51.07 194.736 51.57C195.136 52.05 195.336 52.62 195.336 53.28C195.336 54.52 194.836 55.52 193.836 56.28C192.856 57.02 191.556 57.39 189.936 57.39Z" fill="white"/>
</svg>
