<svg width="32" height="32" viewBox="0 0 32 32" fill="none" xmlns="http://www.w3.org/2000/svg">
<path d="M13.1157 16.795C12.5857 16.795 12.1307 16.7 11.7507 16.51C11.3807 16.33 11.1007 16.09 10.9107 15.79C10.7307 15.49 10.6407 15.175 10.6407 14.845C10.6407 14.385 10.7907 13.995 11.0907 13.675C11.4007 13.355 11.8257 13.195 12.3657 13.195C12.5357 13.195 12.6207 13.24 12.6207 13.33C12.6207 13.37 12.5557 13.455 12.4257 13.585C12.2957 13.725 12.1807 13.89 12.0807 14.08C11.9907 14.27 11.9457 14.51 11.9457 14.8C11.9457 15.17 12.0707 15.475 12.3207 15.715C12.5707 15.955 12.9107 16.075 13.3407 16.075C13.9407 16.075 14.3857 15.845 14.6757 15.385C14.9757 14.935 15.1257 14.195 15.1257 13.165V11.875C14.3957 12.475 13.5957 12.775 12.7257 12.775C11.8057 12.775 11.0307 12.56 10.4007 12.13C9.77066 11.7 9.29566 11.115 8.97566 10.375C8.66566 9.635 8.51066 8.805 8.51066 7.885C8.51066 7.005 8.67566 6.2 9.00566 5.47C9.34566 4.74 9.85066 4.155 10.5207 3.715C11.2007 3.275 12.0257 3.055 12.9957 3.055C13.6257 3.055 14.1907 3.145 14.6907 3.325C15.1907 3.505 15.5807 3.76 15.8607 4.09C16.1407 4.41 16.2807 4.775 16.2807 5.185C16.2807 5.655 16.1407 6.04 15.8607 6.34C15.5907 6.64 15.2457 6.79 14.8257 6.79C14.6957 6.79 14.6157 6.78 14.5857 6.76C14.5657 6.74 14.5557 6.69 14.5557 6.61C14.5557 6.58 14.5907 6.505 14.6607 6.385C14.7407 6.255 14.8057 6.11 14.8557 5.95C14.9057 5.79 14.9307 5.6 14.9307 5.38C14.9307 4.91 14.7507 4.53 14.3907 4.24C14.0407 3.95 13.5757 3.805 12.9957 3.805C12.2857 3.805 11.7057 4.01 11.2557 4.42C10.8057 4.83 10.4807 5.34 10.2807 5.95C10.0807 6.56 9.98066 7.185 9.98066 7.825C9.98066 8.575 10.0957 9.26 10.3257 9.88C10.5557 10.5 10.8857 10.99 11.3157 11.35C11.7557 11.71 12.2607 11.89 12.8307 11.89C13.7507 11.89 14.5157 11.585 15.1257 10.975V10.285C15.1257 9.875 15.0607 9.59 14.9307 9.43C14.8107 9.26 14.5757 9.125 14.2257 9.025L13.9407 8.935L14.0907 8.455H16.9557L17.1207 8.695L16.9557 8.935C16.7257 9.235 16.5607 9.555 16.4607 9.895C16.3707 10.235 16.3257 10.675 16.3257 11.215V12.775C16.3257 15.455 15.2557 16.795 13.1157 16.795ZM20.1807 13.195C19.5307 13.195 18.9457 13.105 18.4257 12.925C17.9157 12.735 17.5157 12.475 17.2257 12.145C16.9457 11.805 16.8057 11.425 16.8057 11.005C16.8057 10.545 16.9507 10.165 17.2407 9.865C17.5407 9.565 17.9157 9.415 18.3657 9.415C18.4557 9.415 18.5257 9.43 18.5757 9.46C18.6257 9.49 18.6507 9.525 18.6507 9.565C18.6507 9.595 18.6057 9.675 18.5157 9.805C18.4357 9.935 18.3657 10.08 18.3057 10.24C18.2457 10.4 18.2157 10.59 18.2157 10.81C18.2157 11.29 18.3957 11.68 18.7557 11.98C19.1157 12.28 19.5907 12.43 20.1807 12.43C20.7007 12.43 21.1207 12.295 21.4407 12.025C21.7607 11.745 21.9207 11.365 21.9207 10.885C21.9207 10.495 21.8207 10.165 21.6207 9.895C21.4207 9.625 21.1707 9.405 20.8707 9.235C20.5807 9.055 20.1857 8.855 19.6857 8.635C19.1157 8.385 18.6507 8.15 18.2907 7.93C17.9407 7.71 17.6407 7.42 17.3907 7.06C17.1507 6.7 17.0307 6.245 17.0307 5.695C17.0307 5.235 17.1407 4.805 17.3607 4.405C17.5907 3.995 17.9307 3.67 18.3807 3.43C18.8307 3.18 19.3757 3.055 20.0157 3.055C20.5957 3.055 21.1157 3.14 21.5757 3.31C22.0357 3.48 22.3957 3.715 22.6557 4.015C22.9157 4.315 23.0457 4.66 23.0457 5.05C23.0457 5.51 22.9057 5.89 22.6257 6.19C22.3557 6.48 22.0107 6.625 21.5907 6.625C21.4107 6.625 21.3207 6.57 21.3207 6.46C21.3207 6.44 21.3557 6.37 21.4257 6.25C21.5057 6.12 21.5757 5.975 21.6357 5.815C21.6957 5.645 21.7257 5.45 21.7257 5.23C21.7257 4.82 21.5657 4.48 21.2457 4.21C20.9257 3.94 20.5157 3.805 20.0157 3.805C19.4757 3.805 19.0607 3.96 18.7707 4.27C18.4807 4.57 18.3357 4.94 18.3357 5.38C18.3357 5.72 18.4307 6.01 18.6207 6.25C18.8107 6.49 19.0457 6.695 19.3257 6.865C19.6057 7.025 19.9957 7.215 20.4957 7.435C21.0957 7.705 21.5807 7.955 21.9507 8.185C22.3307 8.415 22.6507 8.725 22.9107 9.115C23.1707 9.495 23.3007 9.97 23.3007 10.54C23.3007 11.35 23.0257 11.995 22.4757 12.475C21.9357 12.955 21.1707 13.195 20.1807 13.195ZM7.96639 27.775L8.13139 27.535C8.36139 27.235 8.52139 26.925 8.61139 26.605C8.70139 26.275 8.74639 25.83 8.74639 25.27V20.05C8.74639 19.62 8.71639 19.34 8.65639 19.21C8.59639 19.07 8.46639 19 8.26639 19H7.65139C7.32139 19 7.06639 19.035 6.88639 19.105C6.71639 19.175 6.57639 19.295 6.46639 19.465C6.36639 19.635 6.27139 19.885 6.18139 20.215L6.10639 20.545L5.64139 20.38V17.965L5.86639 17.785L6.10639 17.965C6.34639 18.155 6.85639 18.25 7.63639 18.25H11.1914C11.9814 18.25 12.4914 18.155 12.7214 17.965L12.9614 17.785L13.1864 17.965V20.38L12.7214 20.545L12.6464 20.215C12.5164 19.725 12.3564 19.4 12.1664 19.24C11.9764 19.08 11.6464 19 11.1764 19H10.5464C10.3564 19 10.2264 19.07 10.1564 19.21C10.0964 19.35 10.0664 19.63 10.0664 20.05V26.2C10.0664 26.62 10.1214 26.91 10.2314 27.07C10.3514 27.22 10.5914 27.35 10.9514 27.46L11.2814 27.535L11.1164 28H8.13139L7.96639 27.775ZM17.9572 28.195C17.5872 28.195 17.3222 28.085 17.1622 27.865C17.0022 27.635 16.9222 27.265 16.9222 26.755V23.515C16.9222 23.055 16.8222 22.71 16.6222 22.48C16.4222 22.24 16.1272 22.12 15.7372 22.12C15.3472 22.12 15.0022 22.275 14.7022 22.585C14.4122 22.895 14.1872 23.33 14.0272 23.89C13.8672 24.45 13.7872 25.095 13.7872 25.825C13.7872 26.245 13.8172 26.585 13.8772 26.845C13.9472 27.105 14.0622 27.35 14.2222 27.58L14.3872 27.79L14.2222 28H11.8372L11.7022 27.58L11.9572 27.505C12.1972 27.465 12.3522 27.375 12.4222 27.235C12.5022 27.085 12.5422 26.835 12.5422 26.485V22.675C12.5422 22.565 12.5222 22.49 12.4822 22.45C12.4422 22.4 12.3722 22.375 12.2722 22.375H11.6872L11.5522 22.015C11.8122 21.775 12.1122 21.58 12.4522 21.43C12.7922 21.28 13.0922 21.205 13.3522 21.205C13.4822 21.205 13.5872 21.245 13.6672 21.325C13.7472 21.405 13.7872 21.505 13.7872 21.625V23.11C14.0172 22.52 14.3672 22.035 14.8372 21.655C15.3072 21.275 15.8022 21.085 16.3222 21.085C16.9522 21.085 17.4122 21.28 17.7022 21.67C18.0022 22.06 18.1522 22.675 18.1522 23.515V26.8C18.1522 27.11 18.2872 27.265 18.5572 27.265C18.7772 27.265 19.0022 27.17 19.2322 26.98L19.4872 27.325C19.2572 27.585 19.0022 27.795 18.7222 27.955C18.4422 28.115 18.1872 28.195 17.9572 28.195ZM21.1377 27.775L21.3027 27.535C21.5327 27.235 21.6927 26.925 21.7827 26.605C21.8727 26.275 21.9177 25.83 21.9177 25.27V20.05C21.9177 19.62 21.8877 19.34 21.8277 19.21C21.7677 19.07 21.6377 19 21.4377 19H20.8227C20.4927 19 20.2377 19.035 20.0577 19.105C19.8877 19.175 19.7477 19.295 19.6377 19.465C19.5377 19.635 19.4427 19.885 19.3527 20.215L19.2777 20.545L18.8127 20.38V17.965L19.0377 17.785L19.2777 17.965C19.5177 18.155 20.0277 18.25 20.8077 18.25H24.3627C25.1527 18.25 25.6627 18.155 25.8927 17.965L26.1327 17.785L26.3577 17.965V20.38L25.8927 20.545L25.8177 20.215C25.6877 19.725 25.5277 19.4 25.3377 19.24C25.1477 19.08 24.8177 19 24.3477 19H23.7177C23.5277 19 23.3977 19.07 23.3277 19.21C23.2677 19.35 23.2377 19.63 23.2377 20.05V26.2C23.2377 26.62 23.2927 26.91 23.4027 27.07C23.5227 27.22 23.7627 27.35 24.1227 27.46L24.4527 27.535L24.2877 28H21.3027L21.1377 27.775Z" fill="black"/>
</svg>
