<svg width="64" height="64" viewBox="0 0 64 64" fill="none" xmlns="http://www.w3.org/2000/svg">
<path d="M26.2313 32.59C25.1713 32.59 24.2613 32.4 23.5013 32.02C22.7613 31.66 22.2013 31.18 21.8213 30.58C21.4613 29.98 21.2813 29.35 21.2813 28.69C21.2813 27.77 21.5813 26.99 22.1813 26.35C22.8013 25.71 23.6513 25.39 24.7313 25.39C25.0713 25.39 25.2413 25.48 25.2413 25.66C25.2413 25.74 25.1113 25.91 24.8513 26.17C24.5913 26.45 24.3613 26.78 24.1613 27.16C23.9813 27.54 23.8913 28.02 23.8913 28.6C23.8913 29.34 24.1413 29.95 24.6413 30.43C25.1413 30.91 25.8213 31.15 26.6813 31.15C27.8813 31.15 28.7713 30.69 29.3513 29.77C29.9513 28.87 30.2513 27.39 30.2513 25.33V22.75C28.7913 23.95 27.1913 24.55 25.4513 24.55C23.6113 24.55 22.0613 24.12 20.8013 23.26C19.5413 22.4 18.5913 21.23 17.9513 19.75C17.3313 18.27 17.0213 16.61 17.0213 14.77C17.0213 13.01 17.3513 11.4 18.0113 9.94C18.6913 8.48 19.7013 7.31 21.0413 6.43C22.4013 5.55 24.0513 5.11 25.9913 5.11C27.2513 5.11 28.3813 5.29 29.3813 5.65C30.3813 6.01 31.1613 6.52 31.7213 7.18C32.2813 7.82 32.5613 8.55 32.5613 9.37C32.5613 10.31 32.2813 11.08 31.7213 11.68C31.1813 12.28 30.4913 12.58 29.6513 12.58C29.3913 12.58 29.2313 12.56 29.1713 12.52C29.1313 12.48 29.1113 12.38 29.1113 12.22C29.1113 12.16 29.1813 12.01 29.3213 11.77C29.4813 11.51 29.6113 11.22 29.7113 10.9C29.8113 10.58 29.8613 10.2 29.8613 9.76C29.8613 8.82 29.5013 8.06 28.7813 7.48C28.0813 6.9 27.1513 6.61 25.9913 6.61C24.5713 6.61 23.4113 7.02 22.5113 7.84C21.6113 8.66 20.9613 9.68 20.5613 10.9C20.1613 12.12 19.9613 13.37 19.9613 14.65C19.9613 16.15 20.1913 17.52 20.6513 18.76C21.1113 20 21.7713 20.98 22.6313 21.7C23.5113 22.42 24.5213 22.78 25.6613 22.78C27.5013 22.78 29.0313 22.17 30.2513 20.95V19.57C30.2513 18.75 30.1213 18.18 29.8613 17.86C29.6213 17.52 29.1513 17.25 28.4513 17.05L27.8813 16.87L28.1813 15.91H33.9113L34.2413 16.39L33.9113 16.87C33.4513 17.47 33.1213 18.11 32.9213 18.79C32.7413 19.47 32.6513 20.35 32.6513 21.43V24.55C32.6513 29.91 30.5113 32.59 26.2313 32.59ZM40.3613 25.39C39.0613 25.39 37.8913 25.21 36.8513 24.85C35.8313 24.47 35.0313 23.95 34.4513 23.29C33.8913 22.61 33.6113 21.85 33.6113 21.01C33.6113 20.09 33.9013 19.33 34.4813 18.73C35.0813 18.13 35.8313 17.83 36.7313 17.83C36.9113 17.83 37.0513 17.86 37.1513 17.92C37.2513 17.98 37.3013 18.05 37.3013 18.13C37.3013 18.19 37.2113 18.35 37.0313 18.61C36.8713 18.87 36.7313 19.16 36.6113 19.48C36.4913 19.8 36.4313 20.18 36.4313 20.62C36.4313 21.58 36.7913 22.36 37.5113 22.96C38.2313 23.56 39.1813 23.86 40.3613 23.86C41.4013 23.86 42.2413 23.59 42.8813 23.05C43.5213 22.49 43.8413 21.73 43.8413 20.77C43.8413 19.99 43.6413 19.33 43.2413 18.79C42.8413 18.25 42.3413 17.81 41.7413 17.47C41.1613 17.11 40.3713 16.71 39.3713 16.27C38.2313 15.77 37.3013 15.3 36.5813 14.86C35.8813 14.42 35.2813 13.84 34.7813 13.12C34.3013 12.4 34.0613 11.49 34.0613 10.39C34.0613 9.47 34.2813 8.61 34.7213 7.81C35.1813 6.99 35.8613 6.34 36.7613 5.86C37.6613 5.36 38.7513 5.11 40.0313 5.11C41.1913 5.11 42.2313 5.28 43.1513 5.62C44.0713 5.96 44.7913 6.43 45.3113 7.03C45.8313 7.63 46.0913 8.32 46.0913 9.1C46.0913 10.02 45.8113 10.78 45.2513 11.38C44.7113 11.96 44.0213 12.25 43.1813 12.25C42.8213 12.25 42.6413 12.14 42.6413 11.92C42.6413 11.88 42.7113 11.74 42.8513 11.5C43.0113 11.24 43.1513 10.95 43.2713 10.63C43.3913 10.29 43.4513 9.9 43.4513 9.46C43.4513 8.64 43.1313 7.96 42.4913 7.42C41.8513 6.88 41.0313 6.61 40.0313 6.61C38.9513 6.61 38.1213 6.92 37.5413 7.54C36.9613 8.14 36.6713 8.88 36.6713 9.76C36.6713 10.44 36.8613 11.02 37.2413 11.5C37.6213 11.98 38.0913 12.39 38.6513 12.73C39.2113 13.05 39.9913 13.43 40.9913 13.87C42.1913 14.41 43.1613 14.91 43.9013 15.37C44.6613 15.83 45.3013 16.45 45.8213 17.23C46.3413 17.99 46.6013 18.94 46.6013 20.08C46.6013 21.7 46.0513 22.99 44.9513 23.95C43.8713 24.91 42.3413 25.39 40.3613 25.39ZM15.9328 53.55L16.2628 53.07C16.7228 52.47 17.0428 51.85 17.2228 51.21C17.4028 50.55 17.4928 49.66 17.4928 48.54V38.1C17.4928 37.24 17.4328 36.68 17.3128 36.42C17.1928 36.14 16.9328 36 16.5328 36H15.3028C14.6428 36 14.1328 36.07 13.7728 36.21C13.4328 36.35 13.1528 36.59 12.9328 36.93C12.7328 37.27 12.5428 37.77 12.3628 38.43L12.2128 39.09L11.2828 38.76V33.93L11.7328 33.57L12.2128 33.93C12.6928 34.31 13.7128 34.5 15.2728 34.5H22.3828C23.9628 34.5 24.9828 34.31 25.4428 33.93L25.9228 33.57L26.3728 33.93V38.76L25.4428 39.09L25.2928 38.43C25.0328 37.45 24.7128 36.8 24.3328 36.48C23.9528 36.16 23.2928 36 22.3528 36H21.0928C20.7128 36 20.4528 36.14 20.3128 36.42C20.1928 36.7 20.1328 37.26 20.1328 38.1V50.4C20.1328 51.24 20.2428 51.82 20.4628 52.14C20.7028 52.44 21.1828 52.7 21.9028 52.92L22.5628 53.07L22.2328 54H16.2628L15.9328 53.55ZM35.9144 54.39C35.1744 54.39 34.6444 54.17 34.3244 53.73C34.0044 53.27 33.8444 52.53 33.8444 51.51V45.03C33.8444 44.11 33.6444 43.42 33.2444 42.96C32.8444 42.48 32.2544 42.24 31.4744 42.24C30.6944 42.24 30.0044 42.55 29.4044 43.17C28.8244 43.79 28.3744 44.66 28.0544 45.78C27.7344 46.9 27.5744 48.19 27.5744 49.65C27.5744 50.49 27.6344 51.17 27.7544 51.69C27.8944 52.21 28.1244 52.7 28.4444 53.16L28.7744 53.58L28.4444 54H23.6744L23.4044 53.16L23.9144 53.01C24.3944 52.93 24.7044 52.75 24.8444 52.47C25.0044 52.17 25.0844 51.67 25.0844 50.97V43.35C25.0844 43.13 25.0444 42.98 24.9644 42.9C24.8844 42.8 24.7444 42.75 24.5444 42.75H23.3744L23.1044 42.03C23.6244 41.55 24.2244 41.16 24.9044 40.86C25.5844 40.56 26.1844 40.41 26.7044 40.41C26.9644 40.41 27.1744 40.49 27.3344 40.65C27.4944 40.81 27.5744 41.01 27.5744 41.25V44.22C28.0344 43.04 28.7344 42.07 29.6744 41.31C30.6144 40.55 31.6044 40.17 32.6444 40.17C33.9044 40.17 34.8244 40.56 35.4044 41.34C36.0044 42.12 36.3044 43.35 36.3044 45.03V51.6C36.3044 52.22 36.5744 52.53 37.1144 52.53C37.5544 52.53 38.0044 52.34 38.4644 51.96L38.9744 52.65C38.5144 53.17 38.0044 53.59 37.4444 53.91C36.8844 54.23 36.3744 54.39 35.9144 54.39ZM42.2754 53.55L42.6054 53.07C43.0654 52.47 43.3854 51.85 43.5654 51.21C43.7454 50.55 43.8354 49.66 43.8354 48.54V38.1C43.8354 37.24 43.7754 36.68 43.6554 36.42C43.5354 36.14 43.2754 36 42.8754 36H41.6454C40.9854 36 40.4754 36.07 40.1154 36.21C39.7754 36.35 39.4954 36.59 39.2754 36.93C39.0754 37.27 38.8854 37.77 38.7054 38.43L38.5554 39.09L37.6254 38.76V33.93L38.0754 33.57L38.5554 33.93C39.0354 34.31 40.0554 34.5 41.6154 34.5H48.7254C50.3054 34.5 51.3254 34.31 51.7854 33.93L52.2654 33.57L52.7154 33.93V38.76L51.7854 39.09L51.6354 38.43C51.3754 37.45 51.0554 36.8 50.6754 36.48C50.2954 36.16 49.6354 36 48.6954 36H47.4354C47.0554 36 46.7954 36.14 46.6554 36.42C46.5354 36.7 46.4754 37.26 46.4754 38.1V50.4C46.4754 51.24 46.5854 51.82 46.8054 52.14C47.0454 52.44 47.5254 52.7 48.2454 52.92L48.9054 53.07L48.5754 54H42.6054L42.2754 53.55Z" fill="white"/>
</svg>
